# xmcd CD database file
# Copyright (C) 1997 Ti Kan
# 
# Track frame offsets:
#     150
#     23012
#     39547
#     53502
#     69040
#     82875
#     97972
#     114207
#     127290
#     143227
#     156957
# 
# Disc length: 2209 seconds
# 
# Revision: 1
# Processed by: cddbd v1.4b41PL1 Copyright (c) Steve Scherf et al.
# Submitted via: DiscPlay 4.0.3
# 
DISCID=81089f0b
DTITLE=Dan Seals - San Antone
DYEAR=1900
DGENRE=
TTITLE0=In San Antone
TTITLE1=The Loving Proof
TTITLE2=Tonight Is For The Lover In You
TTITLE3=My Baby's Got Good Timing
TTITLE4=Who's Gonna Keep Me Warm
TTITLE5=(You Bring Out) The Wild Side Of Me
TTITLE6=My Old Yellow Car
TTITLE7=She Thinks I Still Care
TTITLE8=She's Leaving
TTITLE9=Oh These Nights
TTITLE10=One Friend
EXTD=
EXTT0=
EXTT1=
EXTT2=
EXTT3=
EXTT4=
EXTT5=
EXTT6=
EXTT7=
EXTT8=
EXTT9=
EXTT10=
PLAYORDER=
